<svg xmlns="http://www.w3.org/2000/svg" viewBox="0 0 48 48" width="32" height="32">
  <path fill="#000" d="M38.4,21.68c-2.66,0-5.12-0.85-7.14-2.29v10.43c0,5.21-4.23,9.44-9.44,9.44c-1.94,0-3.74-0.59-5.24-1.6 c-2.42-1.63-4.02-4.38-4.02-7.52c0-4.97,4.03-9,9-9c0.47,0,0.93,0.04,1.38,0.11v5.02c-0.44-0.09-0.89-0.14-1.36-0.14 c-2.35,0-4.26,1.91-4.26,4.26s1.91,4.26,4.26,4.26s4.26-1.91,4.26-4.26V9.74h4.62c0.31,3.26,2.42,6.02,5.28,7.23 c0.89,0.38,1.85,0.59,2.86,0.59h0.04v4.62C38.56,22.18,38.48,21.68,38.4,21.68z"/>
  <path fill="#00f2ea" d="M36.42,19.68c-2.86-1.21-4.97-3.97-5.28-7.23h-4.62v21.37c0,2.35-1.91,4.26-4.26,4.26s-4.26-1.91-4.26-4.26 s1.91-4.26,4.26-4.26c0.47,0,0.92,0.08,1.36,0.14v-5.02c-0.45-0.07-0.91-0.11-1.38-0.11c-4.97,0-9,4.03-9,9 c0,3.14,1.6,5.89,4.02,7.52c1.5,1.01,3.3,1.6,5.24,1.6c5.21,0,9.44-4.23,9.44-9.44V19.39c2.02,1.44,4.48,2.29,7.14,2.29h0.04v-4.62 h-0.04C37.27,17.06,36.89,17.36,36.42,19.68z"/>
  <path fill="#ff004f" d="M38.44,12.45h-4.62c0.31,3.26,2.42,6.02,5.28,7.23v-4.62C38.89,14.36,38.44,13.45,38.44,12.45z"/>
</svg>