<svg xmlns="http://www.w3.org/2000/svg" viewBox="0 0 48 48" width="32" height="32">
  <path fill="#25D366" d="M24,4C13,4,4,13,4,24c0,3.4,0.8,6.6,2.3,9.5L4,44l10.8-2.3C17.6,43.2,20.7,44,24,44c11,0,20-9,20-20S35,4,24,4z"/>
  <path fill="#FFF" d="M35.2,12.8C32.6,10.2,29.1,8.7,25.3,8.7c-7.6,0-13.8,6.2-13.8,13.8c0,2.4,0.6,4.8,1.8,6.9l-1.9,7l7.2-1.9c2,1.1,4.3,1.6,6.6,1.6c7.6,0,13.8-6.2,13.8-13.8C38.9,18.5,37.8,15.4,35.2,12.8z M25.3,33.5c-2.1,0-4.1-0.5-5.9-1.6l-0.4-0.2l-4.4,1.2l1.2-4.3l-0.3-0.4c-1.1-1.8-1.7-3.9-1.7-6c0-6.3,5.1-11.4,11.4-11.4c3,0,5.9,1.2,8,3.3c2.1,2.1,3.3,5,3.3,8C36.7,28.4,31.6,33.5,25.3,33.5z"/>
  <path fill="#FFF" d="M30.9,26.4c-0.3-0.1-1.8-0.9-2.1-1c-0.3-0.1-0.5-0.1-0.7,0.1c-0.2,0.3-0.8,1-1,1.2c-0.2,0.2-0.3,0.2-0.6,0.1c-0.3-0.1-1.3-0.5-2.5-1.5c-0.9-0.8-1.5-1.8-1.7-2.1c-0.2-0.3,0-0.5,0.1-0.6c0.1-0.1,0.3-0.3,0.4-0.5c0.1-0.1,0.2-0.3,0.2-0.4c0.1-0.2,0-0.3,0-0.4c-0.1-0.1-0.7-1.7-1-2.3c-0.3-0.6-0.5-0.5-0.7-0.5c-0.2,0-0.4,0-0.6,0c-0.2,0-0.5,0.1-0.8,0.3c-0.3,0.3-1,1-1,2.4s1,2.8,1.2,3c0.1,0.2,2.4,3.7,5.8,5.2c0.8,0.3,1.4,0.5,1.9,0.7c0.8,0.2,1.5,0.2,2.1,0.1c0.6-0.1,1.8-0.7,2.1-1.4c0.3-0.7,0.3-1.3,0.2-1.4C31.5,26.6,31.2,26.5,30.9,26.4z"/>
</svg>